<mxfile host="65bd71144e">
    <diagram id="zXhsXGt5TYZrFir4ISeT" name="Page-1">
        <mxGraphModel dx="538" dy="323" grid="1" gridSize="10" guides="0" tooltips="1" connect="1" arrows="1" fold="1" page="1" pageScale="1" pageWidth="850" pageHeight="1100" math="0" shadow="0">
            <root>
                <mxCell id="0"/>
                <mxCell id="1" parent="0"/>
                <mxCell id="10" value="" style="edgeStyle=none;html=1;" edge="1" parent="1" source="3" target="8">
                    <mxGeometry relative="1" as="geometry"/>
                </mxCell>
                <object label="" mern="k" id="3">
                    <mxCell style="ellipse;whiteSpace=wrap;html=1;aspect=fixed;" parent="1" vertex="1">
                        <mxGeometry x="60" y="25" width="80" height="80" as="geometry"/>
                    </mxCell>
                </object>
                <mxCell id="6" value="MERN" style="text;html=1;strokeColor=none;fillColor=none;align=center;verticalAlign=middle;whiteSpace=wrap;rounded=0;" vertex="1" parent="1">
                    <mxGeometry x="70" y="50" width="60" height="30" as="geometry"/>
                </mxCell>
                <mxCell id="8" value="" style="rounded=1;whiteSpace=wrap;html=1;" vertex="1" parent="1">
                    <mxGeometry x="40" y="140" width="120" height="60" as="geometry"/>
                </mxCell>
                <mxCell id="11" value="BASIC JS" style="text;html=1;strokeColor=none;fillColor=none;align=center;verticalAlign=middle;whiteSpace=wrap;rounded=0;" vertex="1" parent="1">
                    <mxGeometry x="70" y="155" width="60" height="30" as="geometry"/>
                </mxCell>
                <mxCell id="14" value="" style="edgeStyle=none;html=1;" edge="1" target="15" parent="1">
                    <mxGeometry relative="1" as="geometry">
                        <mxPoint x="100" y="200" as="sourcePoint"/>
                    </mxGeometry>
                </mxCell>
                <mxCell id="15" value="" style="rounded=1;whiteSpace=wrap;html=1;" vertex="1" parent="1">
                    <mxGeometry x="40" y="235" width="120" height="60" as="geometry"/>
                </mxCell>
                <mxCell id="16" value="BASIC JS" style="text;html=1;strokeColor=none;fillColor=none;align=center;verticalAlign=middle;whiteSpace=wrap;rounded=0;" vertex="1" parent="1">
                    <mxGeometry x="70" y="250" width="60" height="30" as="geometry"/>
                </mxCell>
                <mxCell id="17" value="" style="edgeStyle=none;html=1;" edge="1" target="18" parent="1">
                    <mxGeometry relative="1" as="geometry">
                        <mxPoint x="100" y="295" as="sourcePoint"/>
                    </mxGeometry>
                </mxCell>
                <mxCell id="18" value="" style="rounded=1;whiteSpace=wrap;html=1;" vertex="1" parent="1">
                    <mxGeometry x="40" y="330" width="120" height="60" as="geometry"/>
                </mxCell>
                <mxCell id="19" value="BASIC JS" style="text;html=1;strokeColor=none;fillColor=none;align=center;verticalAlign=middle;whiteSpace=wrap;rounded=0;" vertex="1" parent="1">
                    <mxGeometry x="70" y="345" width="60" height="30" as="geometry"/>
                </mxCell>
                <mxCell id="20" value="" style="edgeStyle=none;html=1;" edge="1" target="21" parent="1">
                    <mxGeometry relative="1" as="geometry">
                        <mxPoint x="100" y="390" as="sourcePoint"/>
                    </mxGeometry>
                </mxCell>
                <mxCell id="21" value="" style="rounded=1;whiteSpace=wrap;html=1;" vertex="1" parent="1">
                    <mxGeometry x="40" y="425" width="120" height="60" as="geometry"/>
                </mxCell>
                <mxCell id="22" value="BASIC JS" style="text;html=1;strokeColor=none;fillColor=none;align=center;verticalAlign=middle;whiteSpace=wrap;rounded=0;" vertex="1" parent="1">
                    <mxGeometry x="70" y="440" width="60" height="30" as="geometry"/>
                </mxCell>
            </root>
        </mxGraphModel>
    </diagram>
</mxfile>